HIERARCHY
ROOT Hips
{
	OFFSET 0.000000 0.000000 0.000000
	CHANNELS 6 Xposition Yposition Zposition Xrotation Yrotation Zrotation
	JOINT LeftUpLeg_virtual
	{
		OFFSET 0.000000 0.000000 0.000000
		CHANNELS 3 Xrotation Yrotation Zrotation
		JOINT LeftUpLeg
		{
			OFFSET 11.394100 -6.187798 -0.413800
			CHANNELS 3 Xrotation Yrotation Zrotation
			JOINT LeftLeg
			{
				OFFSET 0.430247 -32.302673 3.732800
				CHANNELS 3 Xrotation Yrotation Zrotation
				JOINT LeftFoot
				{
					OFFSET -0.430247 -48.264931 -6.423300
					CHANNELS 3 Xrotation Yrotation Zrotation
					JOINT LeftToeBase
					{
						OFFSET 4.230900 -16.068199 23.438400
						CHANNELS 3 Xrotation Yrotation Zrotation
						JOINT LeftToe_End
						{
							OFFSET 4.510700 0.695400 19.974600
							CHANNELS 3 Xrotation Yrotation Zrotation
							End Site
							{
								OFFSET 0 0 0
							}
						}
					}
				}
			}
		}
	}
	JOINT RightUpLeg_virtual
	{
		OFFSET 0.000000 0.000000 0.000000
		CHANNELS 3 Xrotation Yrotation Zrotation
		JOINT RightUpLeg
		{
			OFFSET -11.333700 -6.187798 -0.413800
			CHANNELS 3 Xrotation Yrotation Zrotation
			JOINT RightLeg
			{
				OFFSET -0.430392 -32.302628 3.733000
				CHANNELS 3 Xrotation Yrotation Zrotation
				JOINT RightFoot
				{
					OFFSET 0.430392 -48.264973 -6.423500
					CHANNELS 3 Xrotation Yrotation Zrotation
					JOINT RightToeBase
					{
						OFFSET -4.230900 -16.068199 23.438400
						CHANNELS 3 Xrotation Yrotation Zrotation
						JOINT RightToe_End
						{
							OFFSET -4.510700 0.695400 19.974600
							CHANNELS 3 Xrotation Yrotation Zrotation
							End Site
							{
								OFFSET 0 0 0
							}
						}
					}
				}
			}
		}
	}
	JOINT Spine_virtual
	{
		OFFSET 0.000000 0.000000 0.000000
		CHANNELS 3 Xrotation Yrotation Zrotation
		JOINT Spine
		{
			OFFSET -0.002400 12.777504 0.315300
			CHANNELS 3 Xrotation Yrotation Zrotation
			JOINT Spine1
			{
				OFFSET -0.002067 5.816869 0.032633
				CHANNELS 3 Xrotation Yrotation Zrotation
				JOINT Spine1_split
				{
					OFFSET -0.002067 5.816869 0.032633
					CHANNELS 3 Xrotation Yrotation Zrotation
					JOINT Spine2
					{
						OFFSET -0.002067 5.816869 0.032633
						CHANNELS 3 Xrotation Yrotation Zrotation
						JOINT Neck_virtual
						{
							OFFSET 0.000000 0.000000 0.000000
							CHANNELS 3 Xrotation Yrotation Zrotation
							JOINT Neck
							{
								OFFSET -0.003700 21.199493 -0.826900
								CHANNELS 3 Xrotation Yrotation Zrotation
								JOINT Head
								{
									OFFSET 0.000000 20.442200 4.834800
									CHANNELS 3 Xrotation Yrotation Zrotation
									JOINT HeadTop_End
									{
										OFFSET 0.000000 34.668396 4.968400
										CHANNELS 3 Xrotation Yrotation Zrotation
										End Site
										{
											OFFSET 0 0 0
										}
									}
								}
							}
						}
						JOINT LeftShoulder_virtual
						{
							OFFSET 0.000000 0.000000 0.000000
							CHANNELS 3 Xrotation Yrotation Zrotation
							JOINT LeftShoulder
							{
								OFFSET 3.288150 8.794197 -1.372250
								CHANNELS 3 Xrotation Yrotation Zrotation
								JOINT LeftShoulder_split
								{
									OFFSET 3.288150 8.794197 -1.372250
									CHANNELS 3 Xrotation Yrotation Zrotation
									JOINT LeftArm
									{
										OFFSET 11.953299 -2.279007 -0.146200
										CHANNELS 3 Xrotation Yrotation Zrotation
										JOINT LeftForeArm
										{
											OFFSET 18.448900 0.000000 0.000000
											CHANNELS 3 Xrotation Yrotation Zrotation
											JOINT LeftHand
											{
												OFFSET 29.527798 0.000000 0.000000
												CHANNELS 3 Xrotation Yrotation Zrotation
												End Site
												{
													OFFSET 0 0 0
												}
											}
										}
									}
								}
							}
						}
						JOINT RightShoulder_virtual
						{
							OFFSET 0.000000 0.000000 0.000000
							CHANNELS 3 Xrotation Yrotation Zrotation
							JOINT RightShoulder
							{
								OFFSET -3.249400 8.794197 -1.372250
								CHANNELS 3 Xrotation Yrotation Zrotation
								JOINT RightShoulder_split
								{
									OFFSET -3.249400 8.794197 -1.372250
									CHANNELS 3 Xrotation Yrotation Zrotation
									JOINT RightArm
									{
										OFFSET -11.953299 -2.279007 -0.146200
										CHANNELS 3 Xrotation Yrotation Zrotation
										JOINT RightForeArm
										{
											OFFSET -18.448900 0.000000 0.000000
											CHANNELS 3 Xrotation Yrotation Zrotation
											JOINT RightHand
											{
												OFFSET -29.527802 0.000000 0.000000
												CHANNELS 3 Xrotation Yrotation Zrotation
												End Site
												{
													OFFSET 0 0 0
												}
											}
										}
									}
								}
							}
						}
					}
				}
			}
		}
	}
}
MOTION
Frames: 9
Frame Time: 0.03333333
6.028824 28.060619 -2.243572 0.000000 0.000000 0.000000 -84.367460 -6.119055 -10.433287 -18.442795 37.444463 7.943452 21.924883 26.282650 -15.751912 13.189935 -17.018369 18.059618 23.551334 0.497672 17.860907 0.000000 0.000000 0.000000 -82.068958 -5.052517 -10.162506 -35.758366 -33.772335 -18.231373 20.216829 -10.066099 1.085551 22.037050 -2.140308 -13.993192 15.347940 -17.688624 -52.831889 0.000000 0.000000 0.000000 -84.284049 -5.901210 -11.689733 9.462208 0.014915 -3.102183 4.316703 -3.677466 0.571480 -0.026613 0.958753 -0.263421 0.000000 0.000000 0.000000 1.164388 -0.769701 2.567647 -9.717979 -8.391021 5.584059 19.781814 -78.671717 31.791477 0.000000 0.000000 0.000000 -4.062804 -0.223623 -1.473570 -0.637613 -9.229553 5.203219 1.846522 1.721182 -7.275907 44.700808 1.245571 -51.566859 -167.960895 -50.847234 -177.545577 0.000000 0.000000 0.000000 1.743611 -2.110854 -2.177472 -0.102733 -5.107347 1.921171 -12.022251 -3.283838 8.871280 22.020682 21.031085 62.112668 -175.812252 36.995344 -176.544025 0.000000 0.000000 0.000000 
6.028418 28.060230 -2.247639 0.000000 0.000000 0.000000 -84.362453 -6.120620 -10.434827 -18.441762 37.437093 7.940081 21.925817 26.290431 -15.754238 13.191763 -17.014566 18.059814 23.551073 0.497375 17.860598 0.000000 0.000000 0.000000 -82.064771 -5.055721 -10.166588 -35.752533 -33.772673 -18.233340 20.211465 -10.065182 1.086359 22.036121 -2.138689 -13.997934 15.349165 -17.690108 -52.829614 0.000000 0.000000 0.000000 -84.280928 -5.895030 -11.691485 9.459215 0.010584 -3.101232 4.321445 -3.681546 0.568982 -0.026398 0.958411 -0.264091 0.000000 0.000000 0.000000 1.160912 -0.774641 2.569158 -9.721138 -8.380087 5.577292 19.845229 -78.671437 31.837588 0.000000 0.000000 0.000000 -4.067460 -0.225518 -1.479199 -0.642028 -9.211462 5.199644 1.836072 1.701899 -7.241762 44.730639 1.245347 -51.552034 -167.947385 -50.835636 -177.540331 0.000000 0.000000 0.000000 1.747903 -2.112183 -2.178059 -0.108440 -5.123837 1.913379 -12.029783 -3.314287 8.874018 22.031969 21.053662 62.099909 -175.807048 36.971459 -176.551046 0.000000 0.000000 0.000000 
6.026643 28.060284 -2.252544 0.000000 0.000000 0.000000 -84.357064 -6.121727 -10.438612 -18.444733 37.432169 7.940576 21.928280 26.294896 -15.758691 13.194825 -17.009075 18.059413 23.551488 0.497164 17.861425 0.000000 0.000000 0.000000 -82.062674 -5.059473 -10.173113 -35.746198 -33.773728 -18.236752 20.204384 -10.063129 1.088937 22.038159 -2.134493 -14.002133 15.348067 -17.690991 -52.826329 0.000000 0.000000 0.000000 -84.274733 -5.890043 -11.694868 9.456408 0.003400 -3.096129 4.328645 -3.687884 0.565971 -0.027645 0.958646 -0.264332 0.000000 0.000000 0.000000 1.158541 -0.781314 2.569945 -9.735402 -8.361287 5.571504 19.907640 -78.667715 31.878228 0.000000 0.000000 0.000000 -4.069248 -0.229244 -1.484830 -0.645297 -9.187994 5.203754 1.814303 1.674531 -7.208701 44.770544 1.236994 -51.543152 -167.932154 -50.823489 -177.535987 0.000000 0.000000 0.000000 1.753035 -2.115328 -2.179451 -0.114329 -5.136854 1.901417 -12.056517 -3.332466 8.873692 22.048634 21.072331 62.105230 -175.806324 36.937441 -176.561141 0.000000 0.000000 0.000000 
6.023923 28.061447 -2.257286 0.000000 0.000000 0.000000 -84.354762 -6.122751 -10.444060 -18.450650 37.430929 7.943126 21.931128 26.297518 -15.765689 13.198875 -17.001884 18.058738 23.550859 0.496852 17.864003 0.000000 0.000000 0.000000 -82.062858 -5.062903 -10.180678 -35.741349 -33.775203 -18.241122 20.196125 -10.060615 1.093236 22.044202 -2.127818 -14.004441 15.343824 -17.690707 -52.823232 0.000000 0.000000 0.000000 -84.265335 -5.887200 -11.700379 9.454549 -0.005834 -3.087275 4.338561 -3.694932 0.562965 -0.029514 0.959976 -0.264306 0.000000 0.000000 0.000000 1.156591 -0.789060 2.570355 -9.758852 -8.336099 5.565399 19.961281 -78.662817 31.905893 0.000000 0.000000 0.000000 -4.068851 -0.233604 -1.490630 -0.647475 -9.159565 5.212250 1.781323 1.644764 -7.184637 44.810658 1.225761 -51.539293 -167.920460 -50.815033 -177.535427 0.000000 0.000000 0.000000 1.759608 -2.119159 -2.182173 -0.121285 -5.145682 1.886262 -12.092861 -3.335439 8.867060 22.068799 21.083411 62.124518 -175.809383 36.897396 -176.574556 0.000000 0.000000 0.000000 
6.020522 28.064606 -2.261879 0.000000 0.000000 0.000000 -84.356040 -6.124026 -10.449858 -18.458480 37.433514 7.945502 21.935870 26.298271 -15.775729 13.202951 -16.992899 18.058303 23.549212 0.496446 17.868188 0.000000 0.000000 0.000000 -82.064170 -5.065661 -10.187568 -35.737732 -33.775828 -18.245368 20.185828 -10.057997 1.098353 22.053019 -2.118988 -14.004402 15.335226 -17.688510 -52.822187 0.000000 0.000000 0.000000 -84.253457 -5.886811 -11.708671 9.453869 -0.016718 -3.075578 4.350642 -3.702037 0.560339 -0.030180 0.962130 -0.264349 0.000000 0.000000 0.000000 1.154437 -0.797238 2.571024 -9.788888 -8.304764 5.558158 19.996499 -78.659341 31.910671 0.000000 0.000000 0.000000 -4.066736 -0.237883 -1.496434 -0.649080 -9.125177 5.221464 1.737268 1.609658 -7.169726 44.841817 1.216707 -51.536571 -167.921239 -50.809941 -177.547270 0.000000 0.000000 0.000000 1.768328 -2.122785 -2.186536 -0.129523 -5.151785 1.868460 -12.137355 -3.331315 8.854709 22.091147 21.085793 62.152993 -175.813618 36.852958 -176.592383 0.000000 0.000000 0.000000 
6.016734 28.070110 -2.265461 0.000000 0.000000 0.000000 -84.357050 -6.124328 -10.453124 -18.467665 37.439457 7.946934 21.942766 26.296414 -15.788274 13.205850 -16.982014 18.058585 23.547851 0.496101 17.873162 0.000000 0.000000 0.000000 -82.066314 -5.068857 -10.194510 -35.734091 -33.774684 -18.248758 20.173546 -10.055842 1.102822 22.061521 -2.109840 -14.003017 15.323003 -17.684548 -52.823867 0.000000 0.000000 0.000000 -84.239155 -5.887086 -11.717476 9.454011 -0.028880 -3.062182 4.364165 -3.708897 0.558819 -0.029859 0.964120 -0.263955 0.000000 0.000000 0.000000 1.152183 -0.805555 2.573235 -9.823844 -8.267298 5.549650 20.004337 -78.660434 31.884354 0.000000 0.000000 0.000000 -4.064777 -0.241562 -1.501606 -0.650977 -9.083501 5.228481 1.681310 1.568754 -7.167407 44.856868 1.213390 -51.530700 -167.942699 -50.803869 -177.579741 0.000000 0.000000 0.000000 1.779692 -2.125694 -2.191924 -0.138917 -5.156558 1.848962 -12.190099 -3.329511 8.837013 22.114739 21.080506 62.184788 -175.815271 36.801852 -176.617081 0.000000 0.000000 0.000000 
6.012774 28.077412 -2.268543 0.000000 0.000000 0.000000 -84.356046 -6.123221 -10.454480 -18.477376 37.446990 7.948226 21.950300 26.290419 -15.801875 13.207087 -16.969176 18.058981 23.547574 0.496003 17.878106 0.000000 0.000000 0.000000 -82.068199 -5.072447 -10.201915 -35.728361 -33.772400 -18.250655 20.160934 -10.055110 1.106089 22.066820 -2.102740 -14.002324 15.310182 -17.679861 -52.827661 0.000000 0.000000 0.000000 -84.223493 -5.885102 -11.723534 9.455488 -0.041475 -3.048421 4.378794 -3.715948 0.559480 -0.028885 0.964532 -0.263213 0.000000 0.000000 0.000000 1.149887 -0.813904 2.578333 -9.862956 -8.224000 5.540521 19.961578 -78.668411 31.806825 0.000000 0.000000 0.000000 -4.064851 -0.244865 -1.504968 -0.654128 -9.035447 5.232550 1.623685 1.536235 -7.172883 44.850284 1.215131 -51.518297 -167.989432 -50.788863 -177.638194 0.000000 0.000000 0.000000 1.792821 -2.128296 -2.196880 -0.149129 -5.163377 1.826358 -12.248969 -3.329784 8.818459 22.139848 21.071545 62.215230 -175.810545 36.738119 -176.650972 0.000000 0.000000 0.000000 
6.009161 28.084915 -2.271587 0.000000 0.000000 0.000000 -84.352809 -6.121188 -10.456764 -18.488545 37.455098 7.951457 21.959053 26.278748 -15.816152 13.207274 -16.954280 18.058863 23.547970 0.496216 17.882617 0.000000 0.000000 0.000000 -82.068561 -5.075777 -10.210571 -35.718290 -33.769746 -18.249668 20.148918 -10.056638 1.108097 22.068806 -2.099191 -14.003378 15.298630 -17.675058 -52.832746 0.000000 0.000000 0.000000 -84.207544 -5.880095 -11.726926 9.459039 -0.053551 -3.036234 4.394827 -3.723617 0.563417 -0.028371 0.963563 -0.262582 0.000000 0.000000 0.000000 1.149199 -0.822446 2.587646 -9.906364 -8.174365 5.533616 19.857429 -78.686115 31.670214 0.000000 0.000000 0.000000 -4.067500 -0.248283 -1.504925 -0.659086 -8.981789 5.236790 1.562529 1.516280 -7.180033 44.825032 1.220054 -51.496747 -168.061709 -50.755535 -177.724705 0.000000 0.000000 0.000000 1.806154 -2.131527 -2.199785 -0.159786 -5.174232 1.799784 -12.321928 -3.325988 8.801416 22.169013 21.061529 62.243138 -175.796952 36.657472 -176.695327 0.000000 0.000000 0.000000 
6.005289 28.092140 -2.274487 0.000000 0.000000 0.000000 -84.348683 -6.117068 -10.460457 -18.502774 37.464059 7.957880 21.970164 26.262742 -15.831547 13.206901 -16.937421 18.058306 23.548368 0.496791 17.886454 0.000000 0.000000 0.000000 -82.067161 -5.077642 -10.220794 -35.702389 -33.766591 -18.244842 20.138311 -10.060751 1.109213 22.068797 -2.100362 -14.006205 15.289517 -17.670627 -52.837858 0.000000 0.000000 0.000000 -84.193037 -5.872144 -11.729499 9.464900 -0.064364 -3.026443 4.412713 -3.731717 0.571256 -0.028547 0.962115 -0.262205 0.000000 0.000000 0.000000 1.151848 -0.831061 2.601535 -9.952293 -8.117580 5.531508 19.692467 -78.716202 31.477664 0.000000 0.000000 0.000000 -4.072818 -0.252000 -1.501160 -0.664923 -8.924066 5.244431 1.501177 1.514046 -7.183464 44.791571 1.221950 -51.467542 -168.153766 -50.700460 -177.834876 0.000000 0.000000 0.000000 1.818217 -2.136058 -2.199598 -0.171070 -5.191633 1.768454 -12.413053 -3.310628 8.788464 22.204238 21.051285 62.268909 -175.772132 36.560042 -176.751512 0.000000 0.000000 0.000000 
